<svg xmlns="http://www.w3.org/2000/svg" width="380.009" height="380" viewBox="0 0 380.009 380">
  <g id="book" transform="translate(0 -0.004)">
    <path id="Path_1" data-name="Path 1" d="M6.333,64H95a6.334,6.334,0,0,1,6.333,6.333V387A6.334,6.334,0,0,1,95,393.337H6.333A6.334,6.334,0,0,1,0,387V70.337A6.334,6.334,0,0,1,6.333,64Zm0,0" transform="translate(0 -13.333)" fill="#3498db"/>
    <path id="Path_2" data-name="Path 2" d="M134.333,0h82.333A6.334,6.334,0,0,1,223,6.337V373.67A6.334,6.334,0,0,1,216.667,380H134.333A6.334,6.334,0,0,1,128,373.67V6.337A6.334,6.334,0,0,1,134.333,0Zm0,0" transform="translate(-26.667)" fill="#ffcc5c"/>
    <path id="Path_3" data-name="Path 3" d="M426.976,367.816l-95,25.333a7.355,7.355,0,0,1-1.645.189,6.116,6.116,0,0,1-3.167-.884,6.354,6.354,0,0,1-2.978-3.866l-76-291.333a6.38,6.38,0,0,1,4.5-7.725l95-25.333a6.477,6.477,0,0,1,7.79,4.558l76,291.333A6.383,6.383,0,0,1,426.976,367.816Zm0,0" transform="translate(-51.664 -13.334)" fill="#b3b3b3"/>
    <path id="Path_4" data-name="Path 4" d="M30.333,144H81a6.334,6.334,0,0,1,6.333,6.333V201A6.334,6.334,0,0,1,81,207.337H30.333A6.334,6.334,0,0,1,24,201V150.337A6.334,6.334,0,0,1,30.333,144Zm0,0" transform="translate(-5 -30)" fill="#b3b3b3"/>
    <path id="Path_5" data-name="Path 5" d="M0,104H101.333v12.667H0Zm0,0" transform="translate(0 -21.667)" fill="#003d5c"/>
    <path id="Path_6" data-name="Path 6" d="M0,360H101.333v12.667H0Zm0,0" transform="translate(0 -75)" fill="#003d5c"/>
    <path id="Path_7" data-name="Path 7" d="M0,400H101.333v12.667H0Zm0,0" transform="translate(0 -83.334)" fill="#003d5c"/>
    <g id="Group_9" data-name="Group 9" transform="translate(101.333 38.004)">
      <path id="Path_8" data-name="Path 8" d="M128,48h95V60.671H128Zm0,0" transform="translate(-128 -48.004)" fill="#603813"/>
      <path id="Path_9" data-name="Path 9" d="M128,88h95v12.667H128Zm0,0" transform="translate(-128 -56.337)" fill="#603813"/>
      <path id="Path_10" data-name="Path 10" d="M128,384h95v12.667H128Zm0,0" transform="translate(-128 -118.004)" fill="#603813"/>
      <path id="Path_11" data-name="Path 11" d="M128,416h95v12.667H128Zm0,0" transform="translate(-128 -124.671)" fill="#603813"/>
    </g>
    <path id="Path_12" data-name="Path 12" d="M367.254,115.02,259.9,143.266l3.2,12.262,107.348-28.246Zm0,0" transform="translate(-54.146 -23.962)" fill="#f7931e"/>
    <path id="Path_13" data-name="Path 13" d="M375.063,144.965,267.711,173.211l3.2,12.262L378.26,157.227Zm0,0" transform="translate(-55.773 -30.2)" fill="#f7931e"/>
    <path id="Path_14" data-name="Path 14" d="M425.016,336.453,317.664,364.7l3.2,12.262,107.351-28.253Zm0,0" transform="translate(-66.18 -70.094)" fill="#f7931e"/>
    <path id="Path_15" data-name="Path 15" d="M437.764,385.309,330.407,413.555l3.2,12.262,107.354-28.253Zm0,0" transform="translate(-68.835 -80.272)" fill="#f7931e"/>
  </g>
</svg>
